<svg width="32" height="32" viewBox="0 0 32 32" fill="none" xmlns="http://www.w3.org/2000/svg">
  <path d="M16 2C16 2 6 8 6 18C6 23.5228 10.4772 28 16 28C21.5228 28 26 23.5228 26 18C26 8 16 2 16 2Z" fill="#047857" opacity="0.9"/>
  <path d="M16 8C16 8 11 13 11 19C11 21.7614 13.2386 24 16 24C18.7614 24 21 21.7614 21 19C21 13 16 8 16 8Z" fill="#34d399" opacity="0.6"/>
  <path d="M16 28V12" stroke="#faf8f3" strokeWidth="1.5" strokeLinecap="round" opacity="0.7"/>
  <path d="M16 18L12 14" stroke="#faf8f3" strokeWidth="1" strokeLinecap="round" opacity="0.5"/>
  <path d="M16 15L19 12" stroke="#faf8f3" strokeWidth="1" strokeLinecap="round" opacity="0.5"/>
</svg>
